<svg version="1.0" xmlns="http://www.w3.org/2000/svg" width="765.333" height="877.333"
	viewBox="0 0 574 658" style="background-color: #FFFFFF;">
	<path
		d="M0 329v329h574V0H0v329zm317.5-228.5c16.7.5 30 2 39.5 4.5 1.9.5 6.7 1.7 10.5 2.5 11.4 2.7 28.6 9 40.7 14.9 12.8 6.3 17.2 8.8 17.6 9.8.2.5 1 .8 1.8.8s1.4.4 1.4 1c0 .5.7 1 1.5 1s1.5.4 1.5 1c0 .5.4 1 1 1 1.1 0 1.2.1 14 10.7 12.6 10.4 27.9 28.3 34.9 40.6 1.2 2 3 5.2 4 7.1 1.1 1.8 2.4 4.2 3 5.2.5 1.1 2.4 5 4.1 8.9 1.8 3.8 3.6 7.8 4.1 8.7.5 1 .9 2.7.9 3.7 0 1.1.5 2.3 1 2.6.6.3 1 1.7 1 3s.5 2.7 1 3c.6.3 1 1.9 1 3.5s.4 3.1.9 3.4c.5.3 1.1 2 1.4 3.8.3 1.8 1.5 8.5 2.7 14.8 3.4 18.3 4.4 33.1 4.4 70.5 0 41.4-.5 49.1-4.5 72.5-1.5 8.2-4.9 22.3-6 24.2-.5 1-.9 2.9-.9 4.3s-.4 2.5-1 2.5c-.5 0-1 1.1-1 2.4 0 1.4-.4 2.8-1 3.1-.6.3-1 1.3-1 2.1s-1.8 5.3-4 10-4 8.7-4 8.9c0 .7-10.5 17.4-14.8 23.5-5.6 7.9-20.4 23.4-29.2 30.5-9 7.2-21.8 15.2-32.5 20.4-4.9 2.4-10.7 5.2-12.8 6.2-2.2 1.1-4.7 1.9-5.7 1.9-1.1 0-2.2.4-2.5 1-.3.5-1.5 1-2.6 1-1 0-2.7.4-3.7.9-.9.5-3.7 1.5-6.2 2.1-2.5.7-5.6 1.6-7 2-3.5 1-11.2 2.7-19.5 4-3.8.7-9.2 1.6-11.8 2.1-2.6.5-7.2.9-10.1.9-2.9 0-7.8.5-10.9 1.1-6.1 1.1-9.7.6-9.7-1.5 0-.7 1.1-3.4 2.4-6.2 2.5-5.3 5.3-11.7 6.6-14.9.4-1.1 1.7-4 2.8-6.5 3.4-7.6 5-11.3 7-16.5 1.1-2.8 3.1-7.5 4.5-10.5 6.2-13.8 11.7-27.2 11.7-28.5 0-.8.5-1.5 1-1.5.6 0 1-.7 1-1.5s.4-2.3.9-3.3c.5-.9 1.8-3.8 3-6.4 1.2-2.7 3.1-6.9 4.2-9.5 1.2-2.7 2.5-5.8 3-7.1.5-1.2 1.3-3.2 1.8-4.5.5-1.2 1.8-4.2 2.9-6.7 4.5-10.1 6.2-14 6.2-14.4 0-.3 1.4-3.6 3.1-7.3 1.7-3.7 3.5-7.7 3.9-8.8.4-1.1 1.5-3.6 2.3-5.5 7.3-17 9.7-23.6 9.7-27.2 0-1.5.4-2.9.9-3.2 1.2-.8 2.4-12.5 2.5-24.1.1-23.8-7.4-46.6-21.4-65.2-6.8-9-19.2-20.6-26.7-25-8.3-4.9-15.2-8.3-17-8.3-.7 0-2.1-.4-3.1-.9-1.9-1-6.8-2.3-15.2-4.1-8-1.7-35-.2-37.4 2.1-.6.5-2 .9-3.3.9-1.3 0-3.1.4-4.1.9-.9.4-4.7 2.2-8.3 3.9-10.1 4.6-16.7 9.3-24.1 16.8-6.6 6.7-14.8 17-14.8 18.5 0 .4-.6 1.4-1.3 2.1-3.3 3.4-12.7 26.1-12.7 30.9 0 1.4-.5 3-1.1 3.6-1.5 1.5-1.5 34.1 0 35.6.6.6 1.1 2.3 1.1 3.8 0 3.2 4.8 15 9.1 22.6 5.1 8.9 23.5 26.3 27.7 26.3.6 0 1.2.4 1.4.8 1 2.5 17.4 7.8 31.3 10.3 13.4 2.3 20.1 10 19.3 22.2-.3 3.4-1.5 8.4-2.7 11.2-1.3 2.7-2.8 6.1-3.3 7.5-.6 1.4-1.4 3.3-1.9 4.2-.5 1-.9 2.5-.9 3.3 0 .8-.4 1.5-1 1.5-.5 0-1 .6-1 1.3 0 .8-.6 2.7-1.4 4.3-2.1 4.3-7.7 17-9.6 21.9-1.3 3.3-3.6 8.7-6.4 14.8-1.4 3.2-2.6 6-2.6 6.2 0 .2-1.1 2.8-2.4 5.7-1.3 2.9-3.8 8.7-5.5 12.8-6.4 15.2-7.5 17.5-8.7 18.8-1.2 1.4-5.3.9-16.6-1.9-17.1-4.2-20.2-5-22-6-1-.5-2.5-.9-3.3-.9-.8 0-2.4-.4-3.5-1-1.1-.5-2.9-1.5-4-2-1.1-.6-2.5-1-3.1-1-2.1 0-22.4-10.4-30.9-15.9-14.2-9.1-21.1-14.9-35.6-30.2-6.8-7.2-17.1-22.5-23.5-34.9-3-5.6-7.9-17-7.9-18 0-.6-.4-1.8-.9-2.8-1.5-2.9-2.9-6.6-3.6-9.2-.3-1.4-1.5-5.9-2.6-10-6.1-22.3-7.8-38.7-8.6-81.5-.6-35.1 1.2-63.3 5.4-82.5.8-3.6 1.7-8.2 2-10.3.3-2.1 1-4 1.4-4.3.5-.3.9-1.8.9-3.4 0-1.6.5-3.2 1-3.5.6-.3 1-1.7 1-3s.4-2.7 1-3c.5-.3 1-1.5 1-2.6 0-1 .4-2.7.9-3.7.5-.9 2.1-4.4 3.6-7.7 7.7-17.1 13-25.9 23.4-39C126 161.3 141 146.6 149 141c1.9-1.3 3.7-2.7 4-3 1-1.3 9.9-7 10.8-7 .6 0 1.2-.4 1.4-.8.4-.9 27.1-14.2 28.6-14.2.6 0 3.2-.9 5.9-2.1 5.9-2.5 19.6-6.3 31.3-8.7 3-.6 6.9-1.4 8.5-1.8 10.5-2.1 39.8-4.1 55-3.7 4.4.2 14.8.5 23 .8zm-66.8 180.2c4 3 5 6.3 3 10.6-.8 1.7-3.1 7-5.2 11.7-2.1 4.7-4.8 10.9-6.1 13.8-1.3 2.9-2.4 5.6-2.4 6 0 .4-1.3 2.3-2.8 4.2-2.1 2.4-3.6 3.3-5.9 3.3-3.5 0-9.4-2.5-11.3-4.8-1.6-1.9-1.7-9.8-.1-10.3.6-.2 1.1-1 1.1-1.8s.4-2.2.9-3.2c.5-.9 2.2-4.6 3.9-8.2 1.6-3.6 4.4-9.5 6.1-13.2 1.7-3.7 3.1-7 3.1-7.3 0-1.3 2.8-3.3 5.1-3.7 3.9-.6 7.2.3 10.6 2.9z"
		fill="#5E17EA"
	/>
</svg>