<?xml version="1.0" standalone="no"?>
<!DOCTYPE svg PUBLIC "-//W3C//DTD SVG 20010904//EN"
 "http://www.w3.org/TR/2001/REC-SVG-20010904/DTD/svg10.dtd">
<svg version="1.0" xmlns="http://www.w3.org/2000/svg"
 width="500.000000pt" height="500.000000pt" viewBox="0 0 500.000000 500.000000"
 preserveAspectRatio="xMidYMid meet">

<g transform="translate(0.000000,500.000000) scale(0.100000,-0.100000)"
fill="#000000" stroke="none">
<path d="M0 2500 l0 -2500 2500 0 2500 0 0 2500 0 2500 -2500 0 -2500 0 0
-2500z m2689 1544 c327 -74 588 -347 646 -678 9 -52 15 -147 15 -231 l0 -143
38 -19 c20 -11 50 -38 66 -61 47 -67 46 -123 -7 -327 -24 -94 -51 -184 -60
-200 -32 -63 -103 -105 -176 -105 -30 0 -42 -5 -54 -24 -20 -30 -76 -56 -122
-56 -83 0 -155 67 -155 145 0 22 40 194 88 383 78 303 92 346 117 372 16 17
40 33 52 36 21 6 23 11 23 83 0 107 -23 202 -71 301 -57 116 -181 241 -290
293 -118 56 -179 70 -304 70 -90 -1 -125 -6 -190 -27 -279 -89 -464 -340 -465
-627 0 -83 1 -87 24 -93 13 -3 37 -21 53 -39 25 -29 40 -77 116 -378 48 -189
87 -359 87 -378 0 -74 -76 -141 -161 -141 -45 0 -103 29 -119 61 -8 14 -22 19
-51 19 -73 0 -144 42 -176 105 -9 16 -36 106 -60 200 -53 204 -54 260 -7 327
16 23 46 50 67 61 l37 19 0 146 c0 165 10 238 45 350 67 209 259 421 460 505
178 74 355 91 534 51z m-890 -2113 c21 -13 -2 -39 -37 -43 -21 -2 -28 -9 -30
-30 -3 -25 0 -28 27 -28 24 0 31 -4 31 -20 0 -16 -7 -20 -30 -20 l-30 0 0
-121 0 -121 -35 -35 c-29 -29 -38 -33 -50 -23 -21 17 -19 29 8 50 20 17 22 28
25 134 l4 116 -26 0 c-19 0 -26 5 -26 20 0 13 7 20 20 20 16 0 20 7 20 30 0
59 79 102 129 71z m86 -26 c0 -25 -4 -30 -24 -30 -32 0 -49 28 -31 50 7 9 23
15 34 13 16 -2 21 -10 21 -33z m250 -90 c23 -22 25 -31 25 -125 l0 -100 -30 0
-29 0 -3 98 c-3 91 -4 97 -25 100 -36 5 -53 -32 -53 -120 l0 -78 -29 0 -28 0
-7 93 c-3 50 -7 103 -8 117 -4 34 37 42 47 10 7 -22 7 -22 28 -2 43 39 79 41
112 7z m271 8 c11 -4 14 -28 14 -97 0 -50 4 -98 10 -106 6 -9 5 -17 -3 -22
-22 -14 -46 -8 -52 13 l-7 21 -15 -22 c-22 -32 -98 -25 -126 11 -47 64 -25
167 43 202 33 17 92 17 136 0z m238 7 c32 -12 46 -61 46 -162 l0 -78 -30 0
-30 0 0 83 c0 93 -13 124 -47 113 -30 -9 -43 -48 -43 -126 l0 -70 -29 0 -29 0
-4 98 c-2 53 -8 104 -12 114 -11 24 33 36 50 14 11 -16 14 -15 45 3 38 24 48
25 83 11z m487 -9 c4 -3 9 -44 13 -91 3 -47 7 -96 8 -110 4 -34 -37 -42 -47
-10 l-7 22 -19 -21 c-13 -14 -32 -21 -58 -21 -54 0 -83 34 -88 102 -7 95 54
154 147 142 25 -4 48 -9 51 -13z m211 1 c5 -5 6 -16 3 -24 -5 -12 -16 -15 -44
-11 -68 9 -58 -28 17 -69 59 -32 47 -108 -20 -130 -32 -11 -108 7 -108 25 1
29 15 37 47 25 65 -25 87 19 25 51 -73 37 -87 78 -42 122 27 28 36 31 72 26
22 -3 45 -10 50 -15z m-1452 -91 c0 -79 3 -100 15 -105 29 -11 17 -36 -18 -36
-52 0 -57 12 -57 132 l0 108 30 0 30 0 0 -99z m1010 82 c0 -9 -22 -52 -50 -95
-27 -43 -50 -81 -50 -83 0 -3 23 -5 50 -5 43 0 50 -3 50 -20 0 -18 -7 -20 -85
-20 -78 0 -85 2 -85 20 0 11 22 56 50 100 l49 79 -47 3 c-35 2 -48 7 -50 21
-3 15 6 17 82 17 73 0 86 -2 86 -17z m450 -414 c0 -7 8 -18 18 -25 14 -10 20
-10 32 1 36 32 82 -13 65 -64 -15 -48 -85 -27 -85 26 0 37 -34 26 -38 -12 -3
-25 -2 -27 12 -16 17 15 21 4 7 -18 -15 -23 -41 -5 -41 29 0 16 -4 30 -10 30
-5 0 -10 7 -10 15 0 8 5 15 10 15 6 0 10 7 10 15 0 8 7 15 15 15 8 0 15 -5 15
-11z m-256 -15 c25 -9 19 -34 -6 -31 -17 1 -24 -4 -26 -22 -3 -21 -1 -23 22
-17 31 8 44 -9 17 -23 -27 -15 -37 -14 -55 5 -23 22 -20 60 6 78 26 19 22 18
42 10z m117 -31 c10 -27 -11 -67 -38 -71 -13 -2 -27 5 -37 20 -21 30 -20 44 4
68 23 23 59 15 71 -17z m79 20 c0 -7 -6 -13 -14 -13 -16 0 -26 -21 -26 -57 0
-13 -5 -23 -11 -21 -6 2 -10 7 -10 11 1 4 1 27 1 50 0 42 1 44 30 44 18 0 30
-6 30 -14z m-442 -5 c21 -21 13 -38 -19 -45 -19 -4 -27 -9 -21 -15 6 -6 17 -6
31 1 17 9 20 9 15 -3 -9 -25 -43 -30 -65 -10 -23 21 -24 42 -2 66 19 21 44 23
61 6z m110 -42 c2 -36 0 -47 -10 -44 -7 3 -14 21 -16 41 -2 20 -7 37 -12 37
-5 0 -10 -17 -12 -37 -5 -59 -28 -54 -28 7 l0 51 38 -3 c37 -3 37 -3 40 -52z"/>
<path d="M2367 4000 c-241 -41 -454 -197 -569 -415 -60 -116 -80 -193 -85
-339 -6 -124 -5 -129 13 -121 11 4 26 9 35 12 13 4 17 25 22 111 7 123 32 215
84 312 189 349 614 481 963 299 144 -74 277 -222 336 -371 29 -74 54 -207 54
-288 0 -46 3 -59 18 -63 9 -2 25 -8 36 -12 18 -8 19 -3 13 121 -5 146 -25 223
-85 339 -158 302 -498 471 -835 415z"/>
<path d="M1770 3083 c-37 -14 -60 -47 -60 -87 0 -58 165 -694 185 -716 42 -47
135 -27 160 33 14 33 10 50 -61 333 -101 403 -100 399 -130 423 -26 20 -62 26
-94 14z"/>
<path d="M3143 3075 c-13 -9 -27 -24 -32 -33 -5 -10 -48 -171 -96 -359 -84
-334 -86 -342 -70 -373 22 -43 75 -65 120 -50 18 6 39 17 45 25 17 20 180 663
180 711 0 30 -6 46 -24 63 -31 30 -94 38 -123 16z"/>
<path d="M1606 2895 c-19 -19 -38 -49 -41 -68 -7 -37 75 -382 102 -428 18 -31
55 -54 101 -64 25 -5 32 -3 32 9 0 32 -143 586 -151 586 -5 0 -24 -16 -43 -35z"/>
<path d="M3268 2634 c-41 -162 -70 -297 -66 -300 18 -12 88 19 116 50 24 28
37 65 77 227 l48 194 -21 47 c-13 29 -31 52 -50 62 l-29 15 -75 -295z"/>
<path d="M2280 1771 c-11 -21 -14 -100 -4 -125 3 -9 14 -16 24 -16 31 0 51 36
57 99 l6 61 -36 0 c-26 0 -39 -6 -47 -19z"/>
<path d="M3010 1775 c-32 -39 -19 -145 19 -145 32 0 51 38 51 102 0 57 0 58
-29 58 -16 0 -34 -7 -41 -15z"/>
<path d="M3410 1335 c0 -26 24 -35 32 -12 7 18 -2 37 -18 37 -8 0 -14 -10 -14
-25z"/>
<path d="M3157 1354 c-15 -15 -7 -45 11 -42 9 2 17 12 17 22 0 20 -16 31 -28
20z"/>
<path d="M2805 1350 c-3 -6 1 -7 9 -4 18 7 21 14 7 14 -6 0 -13 -4 -16 -10z"/>
</g>
</svg>
