<svg width="60" height="60" viewBox="0 0 60 60" fill="none" xmlns="http://www.w3.org/2000/svg">
<path fill-rule="evenodd" clip-rule="evenodd" d="M30 0C24.0666 0 18.2664 1.75947 13.3329 5.05591C8.39944 8.35235 4.55429 13.0377 2.28366 18.5195C0.013032 24.0013 -0.58111 30.0333 0.576447 35.8527C1.734 41.6722 4.59126 47.0176 8.78683 51.2132C12.9824 55.4088 18.3279 58.266 24.1473 59.4236C29.9667 60.5811 35.9988 59.987 41.4806 57.7164C46.9623 55.4457 51.6477 51.6006 54.9441 46.6671C58.2406 41.7336 60 35.9334 60 30C60 22.0435 56.8393 14.4129 51.2132 8.7868C45.5871 3.16071 37.9565 0 30 0ZM40.5 20H37.5C37.0805 20.0233 36.6872 20.2117 36.4061 20.524C36.125 20.8364 35.979 21.2473 36 21.667V38.333C35.979 38.7527 36.125 39.1636 36.4061 39.476C36.6872 39.7883 37.0805 39.9767 37.5 40H40.5C40.9196 39.9767 41.3129 39.7883 41.594 39.476C41.875 39.1636 42.021 38.7527 42 38.333V21.667C42.021 21.2473 41.875 20.8364 41.594 20.524C41.3129 20.2117 40.9196 20.0233 40.5 20ZM18.014 38.741C18.0188 38.9793 18.0939 39.2107 18.2298 39.4064C18.3658 39.6021 18.5565 39.7533 18.778 39.841C19.0089 39.9589 19.2668 40.0134 19.5256 39.999C19.7844 39.9846 20.0347 39.9017 20.251 39.759L33.391 31.076C33.5846 30.9513 33.7437 30.7799 33.8535 30.5775C33.9634 30.3751 34.0206 30.1483 34.0197 29.918C34.0188 29.6878 33.9599 29.4614 33.8484 29.2599C33.737 29.0584 33.5766 28.8882 33.382 28.765L20.206 20.215C19.9892 20.074 19.7387 19.9933 19.4803 19.9813C19.2219 19.9694 18.965 20.0265 18.7361 20.147C18.5121 20.2488 18.3219 20.4126 18.1881 20.6191C18.0543 20.8255 17.9825 21.066 17.981 21.312L18.014 38.741Z" fill="#8212F3"/>
</svg>
