<svg xmlns="http://www.w3.org/2000/svg" xmlns:xlink="http://www.w3.org/1999/xlink" width="500" zoomAndPan="magnify" viewBox="0 0 375 374.999991" height="500" preserveAspectRatio="xMidYMid meet" version="1.0"><defs><clipPath id="3765012e1d"><path d="M 5.042969 0 L 360.542969 0 L 360.542969 355.5 L 5.042969 355.5 Z M 5.042969 0 " clip-rule="nonzero"/></clipPath></defs><g clip-path="url(#3765012e1d)"><path fill="#5e17eb" d="M 182.90625 0 C 84.816406 0 5.078125 79.808594 5.078125 177.898438 C 5.078125 275.984375 84.816406 355.722656 182.90625 355.722656 C 280.992188 355.722656 360.730469 275.984375 360.730469 177.898438 C 360.730469 79.808594 280.992188 0 182.90625 0 Z M 182.90625 326.914062 C 100.75 326.914062 33.886719 260.050781 33.886719 177.898438 C 33.886719 95.742188 100.75 28.878906 182.90625 28.878906 C 265.0625 28.878906 331.921875 95.742188 331.921875 177.898438 C 331.921875 260.050781 265.0625 326.914062 182.90625 326.914062 Z M 182.90625 326.914062 " fill-opacity="1" fill-rule="nonzero"/></g><path fill="#5e17eb" d="M 262.074219 172.5625 L 136.03125 99.796875 C 131.976562 97.449219 126.855469 100.363281 126.855469 105.058594 L 126.855469 250.664062 C 126.855469 255.359375 131.976562 258.273438 136.03125 255.925781 L 262.144531 183.160156 C 266.199219 180.8125 266.199219 174.910156 262.074219 172.5625 Z M 262.074219 172.5625 " fill-opacity="1" fill-rule="nonzero"/></svg>