<svg xmlns="http://www.w3.org/2000/svg" xmlns:xlink="http://www.w3.org/1999/xlink" width="500" zoomAndPan="magnify" viewBox="0 0 375 374.999991" height="500" preserveAspectRatio="xMidYMid meet" version="1.0"><defs><clipPath id="5d843128ac"><path d="M 0 0 L 369.75 0 L 369.75 369.75 L 0 369.75 Z M 0 0 " clip-rule="nonzero"/></clipPath><clipPath id="2eeab8f657"><path d="M 37.5 37.5 L 337.5 37.5 L 337.5 337.5 L 37.5 337.5 Z M 37.5 37.5 " clip-rule="nonzero"/></clipPath><clipPath id="74c3a7966f"><path d="M 238 119 L 283.921875 119 L 283.921875 178 L 238 178 Z M 238 119 " clip-rule="nonzero"/></clipPath><clipPath id="2e01c5d701"><path d="M 137.074219 263.246094 L 235 263.246094 L 235 281.226562 L 137.074219 281.226562 Z M 137.074219 263.246094 " clip-rule="nonzero"/></clipPath><clipPath id="48eed32c01"><path d="M 118 88.273438 L 254 88.273438 L 254 103 L 118 103 Z M 118 88.273438 " clip-rule="nonzero"/></clipPath><clipPath id="890f99278d"><path d="M 133 88.273438 L 149 88.273438 L 149 103 L 133 103 Z M 133 88.273438 " clip-rule="nonzero"/></clipPath></defs><g clip-path="url(#5d843128ac)"><path fill="#ffde59" d="M 184.980469 0 C 82.824219 0 0 82.824219 0 184.992188 C 0 287.160156 82.824219 369.988281 184.980469 369.988281 C 287.140625 369.988281 369.976562 287.164062 369.976562 184.992188 C 369.976562 82.820312 287.164062 0 184.980469 0 Z M 306.167969 165.761719 L 256.925781 213.765625 C 256.328125 214.351562 255.808594 214.996094 255.367188 215.703125 C 254.925781 216.414062 254.578125 217.164062 254.320312 217.957031 C 254.0625 218.75 253.902344 219.5625 253.84375 220.394531 C 253.785156 221.230469 253.824219 222.054688 253.964844 222.878906 L 265.59375 290.664062 C 267.035156 299.070312 258.210938 305.484375 250.660156 301.511719 L 189.78125 269.511719 C 189.042969 269.121094 188.269531 268.828125 187.460938 268.628906 C 186.648438 268.425781 185.828125 268.328125 184.992188 268.328125 C 184.160156 268.328125 183.335938 268.425781 182.527344 268.628906 C 181.714844 268.828125 180.941406 269.121094 180.203125 269.511719 L 119.328125 301.511719 C 111.777344 305.484375 102.953125 299.070312 104.394531 290.664062 L 116.019531 222.878906 C 116.160156 222.054688 116.203125 221.230469 116.140625 220.394531 C 116.082031 219.5625 115.921875 218.75 115.664062 217.957031 C 115.40625 217.164062 115.058594 216.414062 114.617188 215.703125 C 114.179688 214.996094 113.660156 214.351562 113.0625 213.765625 L 63.8125 165.761719 C 57.699219 159.808594 61.070312 149.433594 69.515625 148.207031 L 137.570312 138.316406 C 138.394531 138.195312 139.195312 137.980469 139.964844 137.664062 C 140.738281 137.351562 141.464844 136.949219 142.136719 136.457031 C 142.8125 135.96875 143.421875 135.402344 143.957031 134.765625 C 144.496094 134.128906 144.949219 133.433594 145.320312 132.6875 L 175.761719 71.011719 C 179.539062 63.367188 190.445312 63.367188 194.222656 71.011719 L 224.660156 132.6875 C 225.03125 133.433594 225.484375 134.128906 226.019531 134.765625 C 226.558594 135.402344 227.164062 135.96875 227.839844 136.457031 C 228.515625 136.949219 229.238281 137.351562 230.011719 137.664062 C 230.785156 137.980469 231.582031 138.195312 232.410156 138.316406 L 300.460938 148.207031 C 308.914062 149.433594 312.285156 159.808594 306.175781 165.761719 Z M 306.167969 165.761719 " fill-opacity="1" fill-rule="nonzero"/></g><path fill="#ffffff" d="M 194.222656 71.011719 L 224.660156 132.6875 C 225.03125 133.433594 225.484375 134.128906 226.019531 134.765625 C 226.558594 135.402344 227.164062 135.96875 227.839844 136.457031 C 228.515625 136.949219 229.238281 137.351562 230.011719 137.664062 C 230.785156 137.980469 231.582031 138.195312 232.410156 138.316406 L 300.460938 148.207031 C 308.902344 149.4375 312.273438 159.808594 306.167969 165.761719 L 256.925781 213.765625 C 256.328125 214.351562 255.808594 214.996094 255.367188 215.703125 C 254.925781 216.414062 254.578125 217.164062 254.320312 217.957031 C 254.0625 218.75 253.902344 219.5625 253.84375 220.394531 C 253.785156 221.230469 253.824219 222.054688 253.964844 222.878906 L 265.59375 290.664062 C 267.035156 299.070312 258.210938 305.484375 250.660156 301.511719 L 189.78125 269.511719 C 189.042969 269.121094 188.269531 268.828125 187.460938 268.628906 C 186.648438 268.425781 185.828125 268.328125 184.992188 268.328125 C 184.160156 268.328125 183.335938 268.425781 182.527344 268.628906 C 181.714844 268.828125 180.941406 269.121094 180.203125 269.511719 L 119.328125 301.511719 C 111.777344 305.484375 102.953125 299.070312 104.394531 290.664062 L 116.019531 222.878906 C 116.160156 222.054688 116.203125 221.230469 116.140625 220.394531 C 116.082031 219.5625 115.921875 218.75 115.664062 217.957031 C 115.40625 217.164062 115.058594 216.414062 114.617188 215.703125 C 114.179688 214.996094 113.660156 214.351562 113.0625 213.765625 L 63.8125 165.761719 C 57.699219 159.808594 61.070312 149.433594 69.515625 148.207031 L 137.570312 138.316406 C 138.394531 138.195312 139.195312 137.980469 139.964844 137.664062 C 140.738281 137.351562 141.464844 136.949219 142.136719 136.457031 C 142.8125 135.96875 143.421875 135.402344 143.957031 134.765625 C 144.496094 134.128906 144.949219 133.433594 145.320312 132.6875 L 175.761719 71.011719 C 179.539062 63.363281 190.445312 63.363281 194.222656 71.011719 Z M 194.222656 71.011719 " fill-opacity="1" fill-rule="nonzero"/><g clip-path="url(#2eeab8f657)"><path fill="#ffffff" d="M 337.496094 187.496094 C 337.496094 189.953125 337.433594 192.40625 337.316406 194.859375 C 337.195312 197.308594 337.015625 199.757812 336.773438 202.199219 C 336.53125 204.644531 336.230469 207.078125 335.871094 209.507812 C 335.511719 211.933594 335.09375 214.351562 334.613281 216.761719 C 334.132812 219.167969 333.597656 221.5625 333 223.945312 C 332.402344 226.324219 331.75 228.691406 331.035156 231.039062 C 330.324219 233.390625 329.554688 235.71875 328.726562 238.03125 C 327.898438 240.339844 327.015625 242.632812 326.078125 244.898438 C 325.136719 247.167969 324.144531 249.410156 323.09375 251.628906 C 322.042969 253.847656 320.941406 256.042969 319.785156 258.207031 C 318.625 260.371094 317.417969 262.507812 316.15625 264.613281 C 314.894531 266.71875 313.582031 268.789062 312.214844 270.832031 C 310.851562 272.875 309.4375 274.878906 307.976562 276.851562 C 306.515625 278.824219 305.003906 280.757812 303.449219 282.65625 C 301.890625 284.554688 300.289062 286.410156 298.640625 288.230469 C 296.988281 290.050781 295.296875 291.828125 293.5625 293.5625 C 291.828125 295.296875 290.050781 296.988281 288.230469 298.640625 C 286.410156 300.289062 284.554688 301.890625 282.65625 303.449219 C 280.757812 305.003906 278.824219 306.515625 276.851562 307.976562 C 274.878906 309.4375 272.875 310.851562 270.832031 312.214844 C 268.789062 313.578125 266.71875 314.894531 264.613281 316.15625 C 262.507812 317.417969 260.371094 318.625 258.207031 319.785156 C 256.042969 320.941406 253.847656 322.042969 251.628906 323.09375 C 249.410156 324.144531 247.167969 325.136719 244.898438 326.078125 C 242.632812 327.015625 240.339844 327.898438 238.03125 328.726562 C 235.71875 329.554688 233.390625 330.324219 231.039062 331.035156 C 228.691406 331.75 226.324219 332.402344 223.945312 333 C 221.5625 333.597656 219.167969 334.132812 216.761719 334.613281 C 214.351562 335.09375 211.933594 335.511719 209.507812 335.871094 C 207.078125 336.230469 204.644531 336.53125 202.199219 336.773438 C 199.757812 337.015625 197.308594 337.195312 194.859375 337.316406 C 192.40625 337.433594 189.953125 337.496094 187.496094 337.496094 C 185.042969 337.496094 182.589844 337.433594 180.136719 337.316406 C 177.6875 337.195312 175.238281 337.015625 172.796875 336.773438 C 170.351562 336.53125 167.917969 336.230469 165.488281 335.871094 C 163.058594 335.511719 160.640625 335.09375 158.234375 334.613281 C 155.828125 334.132812 153.433594 333.597656 151.050781 333 C 148.671875 332.402344 146.304688 331.75 143.957031 331.035156 C 141.605469 330.324219 139.277344 329.554688 136.964844 328.726562 C 134.652344 327.898438 132.363281 327.015625 130.097656 326.078125 C 127.828125 325.136719 125.585938 324.144531 123.367188 323.09375 C 121.144531 322.042969 118.953125 320.941406 116.789062 319.785156 C 114.625 318.625 112.488281 317.417969 110.382812 316.15625 C 108.277344 314.894531 106.203125 313.582031 104.164062 312.214844 C 102.121094 310.851562 100.117188 309.4375 98.144531 307.976562 C 96.171875 306.515625 94.238281 305.003906 92.339844 303.449219 C 90.441406 301.890625 88.585938 300.289062 86.765625 298.640625 C 84.945312 296.988281 83.167969 295.296875 81.433594 293.5625 C 79.699219 291.828125 78.003906 290.050781 76.355469 288.230469 C 74.707031 286.410156 73.105469 284.554688 71.546875 282.65625 C 69.992188 280.757812 68.480469 278.824219 67.019531 276.851562 C 65.554688 274.878906 64.144531 272.875 62.777344 270.832031 C 61.414062 268.789062 60.101562 266.71875 58.839844 264.613281 C 57.578125 262.507812 56.367188 260.371094 55.210938 258.207031 C 54.054688 256.042969 52.949219 253.847656 51.902344 251.628906 C 50.851562 249.410156 49.855469 247.167969 48.917969 244.898438 C 47.976562 242.632812 47.09375 240.339844 46.269531 238.03125 C 45.441406 235.71875 44.671875 233.390625 43.957031 231.039062 C 43.246094 228.691406 42.589844 226.324219 41.996094 223.945312 C 41.398438 221.5625 40.859375 219.167969 40.382812 216.761719 C 39.902344 214.351562 39.484375 211.933594 39.125 209.507812 C 38.761719 207.078125 38.464844 204.644531 38.222656 202.199219 C 37.980469 199.757812 37.800781 197.308594 37.679688 194.859375 C 37.558594 192.40625 37.5 189.953125 37.5 187.496094 C 37.5 185.042969 37.558594 182.589844 37.679688 180.136719 C 37.800781 177.6875 37.980469 175.238281 38.222656 172.796875 C 38.464844 170.351562 38.761719 167.917969 39.125 165.488281 C 39.484375 163.058594 39.902344 160.640625 40.382812 158.234375 C 40.859375 155.828125 41.398438 153.433594 41.996094 151.050781 C 42.589844 148.671875 43.246094 146.304688 43.957031 143.957031 C 44.671875 141.605469 45.441406 139.277344 46.269531 136.964844 C 47.09375 134.652344 47.976562 132.363281 48.917969 130.097656 C 49.855469 127.828125 50.851562 125.585938 51.902344 123.367188 C 52.949219 121.144531 54.054688 118.953125 55.210938 116.789062 C 56.367188 114.625 57.578125 112.488281 58.839844 110.382812 C 60.101562 108.277344 61.414062 106.203125 62.777344 104.164062 C 64.144531 102.121094 65.554688 100.117188 67.019531 98.144531 C 68.480469 96.171875 69.992188 94.238281 71.546875 92.339844 C 73.105469 90.441406 74.707031 88.585938 76.355469 86.765625 C 78.003906 84.945312 79.699219 83.167969 81.433594 81.433594 C 83.167969 79.699219 84.945312 78.003906 86.765625 76.355469 C 88.585938 74.707031 90.441406 73.105469 92.339844 71.546875 C 94.238281 69.992188 96.171875 68.480469 98.144531 67.019531 C 100.117188 65.554688 102.121094 64.144531 104.164062 62.777344 C 106.203125 61.414062 108.277344 60.101562 110.382812 58.839844 C 112.488281 57.578125 114.625 56.367188 116.789062 55.210938 C 118.953125 54.054688 121.144531 52.949219 123.367188 51.902344 C 125.585938 50.851562 127.828125 49.855469 130.097656 48.917969 C 132.363281 47.976562 134.652344 47.09375 136.964844 46.269531 C 139.277344 45.441406 141.605469 44.671875 143.957031 43.957031 C 146.304688 43.246094 148.671875 42.589844 151.050781 41.996094 C 153.433594 41.398438 155.828125 40.859375 158.234375 40.382812 C 160.640625 39.902344 163.058594 39.484375 165.488281 39.125 C 167.917969 38.761719 170.351562 38.464844 172.796875 38.222656 C 175.238281 37.980469 177.6875 37.800781 180.136719 37.679688 C 182.589844 37.558594 185.042969 37.5 187.496094 37.5 C 189.953125 37.5 192.40625 37.558594 194.859375 37.679688 C 197.308594 37.800781 199.757812 37.980469 202.199219 38.222656 C 204.644531 38.464844 207.078125 38.761719 209.507812 39.125 C 211.933594 39.484375 214.351562 39.902344 216.761719 40.382812 C 219.167969 40.859375 221.5625 41.398438 223.945312 41.996094 C 226.324219 42.589844 228.691406 43.246094 231.039062 43.957031 C 233.390625 44.671875 235.71875 45.441406 238.03125 46.269531 C 240.339844 47.09375 242.632812 47.976562 244.898438 48.917969 C 247.167969 49.855469 249.410156 50.851562 251.628906 51.902344 C 253.847656 52.949219 256.042969 54.054688 258.207031 55.210938 C 260.371094 56.367188 262.507812 57.578125 264.613281 58.839844 C 266.71875 60.101562 268.789062 61.414062 270.832031 62.777344 C 272.875 64.144531 274.878906 65.554688 276.851562 67.019531 C 278.824219 68.480469 280.757812 69.992188 282.65625 71.546875 C 284.554688 73.105469 286.410156 74.707031 288.230469 76.355469 C 290.050781 78.003906 291.828125 79.699219 293.5625 81.433594 C 295.296875 83.167969 296.988281 84.945312 298.640625 86.765625 C 300.289062 88.585938 301.890625 90.441406 303.449219 92.339844 C 305.003906 94.238281 306.515625 96.171875 307.976562 98.144531 C 309.4375 100.117188 310.851562 102.121094 312.214844 104.164062 C 313.578125 106.203125 314.894531 108.277344 316.15625 110.382812 C 317.417969 112.488281 318.625 114.625 319.785156 116.789062 C 320.941406 118.953125 322.042969 121.144531 323.09375 123.367188 C 324.144531 125.585938 325.136719 127.828125 326.078125 130.097656 C 327.015625 132.363281 327.898438 134.652344 328.726562 136.964844 C 329.554688 139.277344 330.324219 141.605469 331.035156 143.957031 C 331.75 146.304688 332.402344 148.671875 333 151.050781 C 333.597656 153.433594 334.132812 155.828125 334.613281 158.234375 C 335.09375 160.640625 335.511719 163.058594 335.871094 165.488281 C 336.230469 167.917969 336.53125 170.351562 336.773438 172.796875 C 337.015625 175.238281 337.195312 177.6875 337.316406 180.136719 C 337.433594 182.589844 337.496094 185.042969 337.496094 187.496094 Z M 337.496094 187.496094 " fill-opacity="1" fill-rule="nonzero"/></g><path fill="#f9b200" d="M 132.558594 185.042969 C 135.503906 185.859375 138.5 184.164062 140.363281 182.035156 C 142.410156 179.699219 143.59375 177.554688 144.164062 175.382812 C 144.714844 173.257812 144.550781 171.46875 143.941406 169.933594 C 146.730469 172.316406 148.511719 175.441406 147.277344 179.472656 C 146.613281 181.667969 145.074219 183.984375 142.710938 186.359375 C 140.707031 188.367188 137.894531 189.714844 134.960938 189.308594 C 132.394531 188.949219 128.492188 186.707031 128.5 183.804688 C 128.503906 182.792969 129.105469 181.882812 129.863281 181.007812 C 129.472656 182.945312 130.402344 184.445312 132.558594 185.042969 " fill-opacity="1" fill-rule="nonzero"/><path fill="#ffd202" d="M 131.722656 171.46875 C 127.148438 168.148438 121.511719 166.671875 116.511719 164.082031 C 111.9375 161.707031 107.75 158.484375 104.0625 154.972656 C 96.5625 147.820312 90.617188 138.5 89.429688 128.21875 C 89.175781 126.011719 89.144531 123.777344 89.367188 121.566406 C 89.433594 120.878906 89.539062 120.1875 89.652344 119.492188 C 91.914062 113.128906 96.875 107.226562 103.65625 105.667969 C 110.1875 104.164062 116.914062 106.886719 122.722656 110.085938 C 122.734375 110.316406 124.003906 110.695312 124.011719 110.925781 C 124.132812 113.660156 122.527344 118.09375 122.648438 120.828125 C 122.40625 120.667969 122.152344 120.523438 121.90625 120.398438 C 117.089844 118.007812 106.777344 114.945312 103.503906 120.933594 C 103.3125 121.28125 103.152344 121.628906 103.007812 121.976562 C 102.574219 122.511719 102.191406 123.113281 101.875 123.800781 C 99.691406 128.59375 99.648438 133.558594 101.75 138.5625 C 107.097656 151.296875 124.472656 160.914062 133.898438 164.589844 L 134.789062 164.929688 C 137.59375 166.015625 141.242188 167.628906 143.941406 169.933594 C 144.550781 171.46875 144.714844 173.257812 144.164062 175.382812 C 143.59375 177.554688 142.410156 179.699219 140.363281 182.035156 C 138.5 184.164062 135.503906 185.859375 132.558594 185.042969 C 130.402344 184.445312 129.472656 182.945312 129.863281 181.007812 C 131.167969 179.503906 132.917969 178.09375 132.875 176.421875 C 133.351562 175.742188 133.644531 174.972656 133.4375 173.910156 C 133.246094 172.921875 132.558594 172.078125 131.722656 171.46875 " fill-opacity="1" fill-rule="nonzero"/><path fill="#f9b200" d="M 88.328125 124.796875 C 88.574219 123.121094 88.984375 121.445312 89.546875 119.78125 C 89.582031 119.683594 89.621094 119.589844 89.652344 119.492188 C 89.539062 120.1875 89.433594 120.878906 89.367188 121.566406 C 89.144531 123.777344 89.175781 126.011719 89.429688 128.21875 C 90.617188 138.5 96.5625 147.820312 104.0625 154.972656 C 107.75 158.484375 111.9375 161.707031 116.511719 164.082031 C 121.511719 166.671875 127.148438 168.148438 131.722656 171.46875 C 132.558594 172.078125 133.21875 172.925781 133.4375 173.910156 C 133.601562 174.621094 133.964844 175.953125 132.550781 177.78125 C 132.777344 177.199219 132.8125 177.136719 132.875 176.421875 C 132.859375 175.898438 132.6875 175.351562 132.25 174.769531 C 131.15625 173.300781 129.09375 172.46875 127.359375 171.917969 C 121.382812 170.023438 116.003906 168.195312 110.773438 165.007812 C 97.214844 156.742188 85.941406 140.707031 88.328125 124.796875 " fill-opacity="1" fill-rule="nonzero"/><path fill="#f9b200" d="M 121.191406 109.257812 C 123.011719 110.097656 124.230469 110.980469 124.46875 111.140625 C 125.472656 113.492188 126.824219 124.464844 124.664062 123.230469 C 124.507812 123.035156 124.265625 122.875 123.832031 122.582031 C 121.402344 120.957031 113.46875 119.152344 112.085938 118.988281 C 108.519531 118.574219 105.113281 119.402344 103.007812 121.976562 C 103.152344 121.628906 103.3125 121.28125 103.503906 120.933594 C 104.855469 118.460938 107.515625 117.324219 110.191406 117 C 111.660156 116.820312 113.144531 116.855469 114.609375 117.007812 C 116.148438 117.171875 117.648438 117.71875 119.171875 117.863281 C 119.660156 117.90625 120.179688 117.839844 120.589844 117.570312 C 122.371094 116.433594 122.214844 112.296875 121.957031 110.503906 C 121.886719 109.996094 121.613281 109.578125 121.191406 109.257812 " fill-opacity="1" fill-rule="nonzero"/><path fill="#ffe36c" d="M 91.3125 123.960938 C 93.335938 118.4375 97.65625 113.363281 103.546875 112.011719 C 108.097656 110.964844 112.761719 112.25 117.039062 114.230469 C 118.484375 114.898438 120.109375 113.800781 120.039062 112.214844 C 120.007812 111.46875 119.585938 110.785156 118.925781 110.4375 C 114.070312 107.886719 108.566406 105.894531 103.21875 107.121094 C 97.332031 108.480469 93.007812 113.554688 90.984375 119.074219 C 90.933594 119.214844 90.59375 120.855469 90.539062 121.386719 C 90.34375 123.332031 90.214844 123.53125 90.433594 125.46875 C 90.476562 125.835938 90.871094 126.359375 90.980469 125.988281 C 91.132812 125.476562 91.257812 124.097656 91.3125 123.960938 " fill-opacity="1" fill-rule="nonzero"/><path fill="#ffe36c" d="M 123.859375 164.976562 C 127.359375 164.703125 133.304688 166.132812 135.621094 169.675781 C 137.1875 172.066406 137.789062 175.785156 135.796875 178.230469 C 135.519531 178.566406 134.722656 179.613281 133.40625 179.199219 C 132.632812 178.957031 133.269531 177.601562 133.429688 177.300781 C 135.921875 172.402344 131 169.113281 127.402344 167.566406 C 126.03125 166.976562 124.601562 166.652344 123.210938 166.121094 C 123.105469 166.078125 122.996094 166.039062 122.914062 165.953125 C 122.835938 165.871094 122.84375 165.75 122.847656 165.636719 C 122.859375 165.101562 123.648438 164.992188 123.859375 164.976562 " fill-opacity="1" fill-rule="nonzero"/><path fill="#f9b200" d="M 239.4375 185.042969 C 236.492188 185.859375 233.5 184.164062 231.632812 182.035156 C 229.585938 179.699219 228.402344 177.554688 227.835938 175.382812 C 227.28125 173.257812 227.445312 171.46875 228.058594 169.933594 C 225.265625 172.316406 223.492188 175.441406 224.71875 179.472656 C 225.382812 181.667969 226.921875 183.984375 229.285156 186.359375 C 231.289062 188.367188 234.101562 189.714844 237.035156 189.308594 C 239.601562 188.949219 243.507812 186.707031 243.5 183.804688 C 243.492188 182.792969 242.894531 181.882812 242.132812 181.007812 C 242.523438 182.945312 241.59375 184.445312 239.4375 185.042969 " fill-opacity="1" fill-rule="nonzero"/><path fill="#ffd202" d="M 240.273438 171.46875 C 244.855469 168.148438 250.484375 166.671875 255.484375 164.082031 C 260.0625 161.707031 264.246094 158.484375 267.933594 154.972656 C 275.433594 147.820312 281.378906 138.5 282.566406 128.21875 C 282.820312 126.011719 282.851562 123.777344 282.628906 121.566406 C 282.5625 120.878906 282.457031 120.1875 282.34375 119.492188 C 280.082031 113.128906 275.121094 107.226562 268.339844 105.667969 C 261.808594 104.164062 255.085938 106.886719 249.277344 110.085938 C 249.261719 110.316406 247.996094 110.695312 247.984375 110.925781 C 247.863281 113.660156 249.46875 118.09375 249.347656 120.828125 C 249.589844 120.667969 249.84375 120.523438 250.09375 120.398438 C 254.90625 118.007812 265.226562 114.945312 268.492188 120.933594 C 268.683594 121.28125 268.84375 121.628906 268.988281 121.976562 C 269.421875 122.511719 269.8125 123.113281 270.121094 123.800781 C 272.308594 128.59375 272.351562 133.558594 270.246094 138.5625 C 264.898438 151.296875 247.523438 160.914062 238.101562 164.589844 L 237.210938 164.929688 C 234.40625 166.015625 230.757812 167.628906 228.058594 169.933594 C 227.445312 171.46875 227.28125 173.257812 227.835938 175.382812 C 228.402344 177.554688 229.585938 179.699219 231.632812 182.035156 C 233.5 184.164062 236.492188 185.859375 239.4375 185.042969 C 241.59375 184.445312 242.523438 182.945312 242.132812 181.007812 C 240.828125 179.503906 239.078125 178.09375 239.121094 176.421875 C 238.644531 175.742188 238.351562 174.972656 238.558594 173.910156 C 238.75 172.921875 239.4375 172.078125 240.273438 171.46875 " fill-opacity="1" fill-rule="nonzero"/><g clip-path="url(#74c3a7966f)"><path fill="#f9b200" d="M 283.667969 124.796875 C 283.421875 123.121094 283.019531 121.445312 282.449219 119.78125 C 282.414062 119.683594 282.375 119.589844 282.34375 119.492188 C 282.457031 120.1875 282.5625 120.878906 282.628906 121.566406 C 282.851562 123.777344 282.820312 126.011719 282.566406 128.21875 C 281.378906 138.5 275.433594 147.820312 267.933594 154.972656 C 264.246094 158.484375 260.0625 161.707031 255.484375 164.082031 C 250.484375 166.671875 244.855469 168.148438 240.273438 171.46875 C 239.4375 172.078125 238.777344 172.925781 238.558594 173.910156 C 238.394531 174.621094 238.035156 175.953125 239.445312 177.78125 C 239.21875 177.199219 239.191406 177.136719 239.121094 176.421875 C 239.136719 175.898438 239.308594 175.351562 239.746094 174.769531 C 240.84375 173.300781 242.910156 172.46875 244.636719 171.917969 C 250.617188 170.023438 255.996094 168.195312 261.222656 165.007812 C 274.78125 156.742188 286.0625 140.707031 283.667969 124.796875 " fill-opacity="1" fill-rule="nonzero"/></g><path fill="#f9b200" d="M 250.804688 109.257812 C 248.984375 110.097656 247.769531 110.980469 247.53125 111.140625 C 246.523438 113.492188 245.171875 124.464844 247.335938 123.230469 C 247.488281 123.035156 247.730469 122.875 248.164062 122.582031 C 250.59375 120.957031 258.527344 119.152344 259.914062 118.988281 C 263.476562 118.574219 266.882812 119.402344 268.988281 121.976562 C 268.84375 121.628906 268.683594 121.28125 268.492188 120.933594 C 267.140625 118.460938 264.488281 117.324219 261.804688 117 C 260.335938 116.820312 258.851562 116.855469 257.390625 117.007812 C 255.847656 117.171875 254.347656 117.71875 252.828125 117.863281 C 252.335938 117.90625 251.816406 117.839844 251.40625 117.570312 C 249.628906 116.433594 249.785156 112.296875 250.039062 110.503906 C 250.109375 109.996094 250.382812 109.578125 250.804688 109.257812 " fill-opacity="1" fill-rule="nonzero"/><path fill="#ffe36c" d="M 280.683594 123.960938 C 278.664062 118.4375 274.339844 113.363281 268.449219 112.011719 C 263.898438 110.964844 259.234375 112.25 254.957031 114.230469 C 253.519531 114.898438 251.890625 113.800781 251.957031 112.214844 C 251.996094 111.46875 252.410156 110.785156 253.074219 110.4375 C 257.933594 107.886719 263.429688 105.894531 268.777344 107.121094 C 274.664062 108.480469 278.992188 113.554688 281.015625 119.074219 C 281.0625 119.214844 281.40625 120.855469 281.460938 121.386719 C 281.652344 123.332031 281.785156 123.53125 281.5625 125.46875 C 281.519531 125.835938 281.128906 126.359375 281.019531 125.988281 C 280.867188 125.476562 280.738281 124.097656 280.683594 123.960938 " fill-opacity="1" fill-rule="nonzero"/><path fill="#ffe36c" d="M 248.136719 164.976562 C 244.644531 164.703125 238.695312 166.132812 236.378906 169.675781 C 234.808594 172.066406 234.210938 175.785156 236.203125 178.230469 C 236.476562 178.566406 237.273438 179.613281 238.597656 179.199219 C 239.367188 178.957031 238.726562 177.601562 238.566406 177.300781 C 236.074219 172.402344 240.996094 169.113281 244.59375 167.566406 C 245.964844 166.976562 247.394531 166.652344 248.785156 166.121094 C 248.890625 166.078125 249 166.039062 249.082031 165.953125 C 249.164062 165.871094 249.152344 165.75 249.152344 165.636719 C 249.136719 165.101562 248.347656 164.992188 248.136719 164.976562 " fill-opacity="1" fill-rule="nonzero"/><g clip-path="url(#2e01c5d701)"><path fill="#f9b200" d="M 230.9375 281.226562 C 232.894531 281.226562 234.480469 279.636719 234.480469 277.679688 L 234.480469 274.765625 C 234.480469 269.273438 230.714844 264.632812 225.644531 263.277344 C 227.238281 265.050781 228.148438 267.453125 227.90625 270.0625 C 227.558594 273.746094 224.285156 276.46875 220.59375 276.46875 L 145.242188 276.46875 C 141.679688 276.46875 138.769531 273.550781 138.769531 269.980469 L 138.769531 269.496094 C 137.972656 271.089844 137.515625 272.875 137.515625 274.765625 L 137.515625 276.453125 C 137.515625 276.46875 137.515625 277.707031 137.515625 277.71875 C 137.523438 279.675781 139.199219 281.226562 141.160156 281.226562 L 230.9375 281.226562 " fill-opacity="1" fill-rule="nonzero"/></g><path fill="#ffd202" d="M 161.4375 260.140625 L 204.828125 260.140625 C 206.25 260.140625 207.441406 259.164062 207.8125 257.855469 C 207.199219 255.148438 204.203125 254.125 198.011719 248.078125 C 189.40625 239.679688 191.566406 215.097656 192.519531 207.210938 C 192.621094 206.417969 192.699219 205.800781 192.753906 205.378906 C 192.820312 204.960938 192.855469 202.859375 192.855469 202.859375 L 175.929688 202.859375 C 176.917969 209.859375 180.199219 238.402344 169.6875 247.855469 C 162.9375 253.9375 159.445312 255.285156 158.4375 257.808594 C 158.792969 259.140625 160 260.140625 161.4375 260.140625 " fill-opacity="1" fill-rule="nonzero"/><path fill="#ffe36c" d="M 163.796875 260.140625 L 170.589844 260.140625 C 169.152344 260.140625 167.945312 259.140625 167.597656 257.808594 C 168.601562 255.285156 172.089844 253.9375 178.839844 247.855469 C 189.03125 238.695312 186.261719 211.59375 185.183594 203.5625 L 178.386719 203.5625 C 179.464844 211.59375 182.238281 238.695312 172.042969 247.855469 C 165.296875 253.9375 161.808594 255.285156 160.800781 257.808594 C 161.152344 259.140625 162.359375 260.140625 163.796875 260.140625 " fill-opacity="1" fill-rule="nonzero"/><path fill="#f9b200" d="M 202.304688 247.855469 C 192.28125 238.824219 194.796875 212.417969 195.910156 203.949219 C 196.027344 203.09375 196.117188 202.433594 196.179688 201.980469 C 196.257812 201.53125 196.296875 201.296875 196.296875 201.296875 L 175.695312 201.296875 C 175.695312 201.296875 175.792969 201.855469 175.929688 202.859375 L 192.855469 202.859375 C 192.855469 202.859375 192.820312 204.960938 192.753906 205.378906 C 192.699219 205.800781 192.621094 206.417969 192.519531 207.210938 C 191.566406 215.097656 189.40625 239.679688 198.011719 248.078125 C 204.203125 254.125 207.199219 255.148438 207.8125 257.855469 C 207.441406 259.164062 206.25 260.140625 204.828125 260.140625 L 161.4375 260.140625 C 160 260.140625 158.792969 259.140625 158.4375 257.808594 C 158.195312 258.429688 158.089844 259.125 158.132812 259.980469 C 158.148438 260.191406 158.15625 260.402344 158.183594 260.640625 C 158.261719 261.300781 158.414062 262.054688 158.621094 262.925781 L 213.375 262.925781 C 215.164062 255.484375 212.304688 256.847656 202.304688 247.855469 " fill-opacity="1" fill-rule="nonzero"/><path fill="#f9b200" d="M 197.679688 191.101562 L 174.316406 191.101562 C 173.609375 191.101562 172.929688 191.203125 172.277344 191.378906 L 196.78125 191.378906 C 199.636719 191.378906 201.96875 193.714844 201.96875 196.570312 L 201.96875 198.367188 C 201.96875 201.222656 199.636719 203.5625 196.78125 203.5625 L 171.132812 203.5625 C 169.09375 203.5625 167.328125 202.355469 166.484375 200.628906 C 167.203125 204.292969 170.449219 207.085938 174.316406 207.085938 L 197.679688 207.085938 C 202.070312 207.085938 205.664062 203.488281 205.664062 199.09375 C 205.664062 194.695312 202.070312 191.101562 197.679688 191.101562 " fill-opacity="1" fill-rule="nonzero"/><path fill="#ffd202" d="M 171.132812 203.5625 L 196.78125 203.5625 C 199.636719 203.5625 201.96875 201.222656 201.96875 198.367188 L 201.96875 196.570312 C 201.96875 193.714844 199.636719 191.378906 196.78125 191.378906 L 172.277344 191.378906 C 168.867188 192.285156 166.332031 195.40625 166.332031 199.09375 C 166.332031 199.617188 166.390625 200.128906 166.484375 200.628906 C 167.328125 202.355469 169.09375 203.5625 171.132812 203.5625 " fill-opacity="1" fill-rule="nonzero"/><path fill="#ffe36c" d="M 175.636719 200.628906 C 175.542969 200.128906 175.484375 199.617188 175.484375 199.09375 C 175.484375 195.40625 178.019531 192.285156 181.429688 191.378906 L 174.636719 191.378906 C 171.230469 192.285156 168.695312 195.40625 168.695312 199.09375 C 168.695312 199.617188 168.746094 200.128906 168.84375 200.628906 C 169.691406 202.355469 171.449219 203.5625 173.492188 203.5625 L 178.386719 203.5625 C 178.371094 203.421875 178.351562 203.296875 178.335938 203.160156 C 177.15625 202.671875 176.199219 201.769531 175.636719 200.628906 " fill-opacity="1" fill-rule="nonzero"/><path fill="#ffd202" d="M 142.078125 276.46875 L 221.390625 276.46875 C 224.019531 276.46875 226.480469 274.910156 227.367188 272.4375 C 228.628906 268.941406 227.714844 265.578125 225.644531 263.277344 C 224.664062 263.015625 223.648438 262.863281 222.59375 262.863281 L 149.402344 262.863281 C 144.753906 262.863281 140.71875 265.578125 138.769531 269.496094 L 138.769531 273.148438 C 138.769531 274.976562 140.257812 276.46875 142.078125 276.46875 " fill-opacity="1" fill-rule="nonzero"/><path fill="#ffe36c" d="M 151.601562 269.980469 L 151.601562 269.496094 C 153.394531 264.378906 157.589844 262.863281 162.238281 262.863281 L 155.445312 262.863281 C 150.796875 262.863281 146.425781 264.027344 144.804688 269.496094 L 144.765625 271.355469 C 144.765625 274.921875 145.265625 276.46875 148.832031 276.46875 L 158.078125 276.46875 C 154.519531 276.46875 151.601562 273.546875 151.601562 269.980469 " fill-opacity="1" fill-rule="nonzero"/><g clip-path="url(#48eed32c01)"><path fill="#ffd202" d="M 246.460938 88.875 L 125.542969 88.875 C 121.761719 88.875 118.667969 91.722656 118.667969 95.203125 L 118.667969 96.601562 C 118.667969 97.148438 118.757812 97.683594 118.898438 98.191406 C 119.667969 100.910156 122.355469 102.933594 125.542969 102.933594 L 246.460938 102.933594 C 250.234375 102.933594 253.328125 100.085938 253.328125 96.601562 L 253.328125 95.203125 C 253.328125 91.722656 250.234375 88.875 246.460938 88.875 " fill-opacity="1" fill-rule="nonzero"/></g><path fill="#f9b200" d="M 247.902344 110.441406 C 247.902344 160.070312 221.511719 197.808594 186 197.808594 C 175.644531 197.808594 166.0625 194.558594 157.683594 188.78125 C 163.902344 191.359375 171.089844 192.769531 179.371094 192.769531 C 211.320312 192.769531 235.070312 158.8125 235.070312 114.164062 C 235.070312 110.273438 231.890625 107.09375 228.015625 107.09375 L 148.226562 106.90625 L 134.003906 106.867188 L 124.140625 106.84375 C 124.191406 105.332031 124.253906 103.8125 124.339844 102.316406 L 133.75 102.339844 L 148.152344 102.363281 L 247.667969 102.597656 C 247.824219 105.175781 247.902344 107.789062 247.902344 110.441406 " fill-opacity="1" fill-rule="nonzero"/><path fill="#ffd202" d="M 235.070312 114.160156 C 235.070312 110.277344 231.898438 107.09375 228.019531 107.082031 L 124.148438 106.855469 C 124.117188 108.042969 124.09375 109.238281 124.09375 110.4375 C 124.09375 145.582031 137.339844 174.746094 157.683594 188.785156 C 163.90625 191.359375 171.09375 192.765625 179.367188 192.765625 C 211.320312 192.765625 235.070312 158.808594 235.070312 114.160156 " fill-opacity="1" fill-rule="nonzero"/><g clip-path="url(#890f99278d)"><path fill="#ffe36c" d="M 148.8125 88.871094 C 148.386719 93.953125 148.152344 96.714844 148.152344 102.046875 L 148.152344 102.363281 L 133.75 102.339844 C 133.640625 99.625 133.578125 96.875 133.578125 94.097656 C 133.578125 91.507812 133.640625 91.414062 133.734375 88.871094 L 148.8125 88.871094 " fill-opacity="1" fill-rule="nonzero"/></g><path fill="#ffe36c" d="M 176.992188 188.472656 C 154.835938 185.363281 136.9375 150.941406 134.003906 106.867188 L 148.226562 106.90625 C 149.15625 143.800781 160.773438 175.027344 176.992188 188.472656 " fill-opacity="1" fill-rule="nonzero"/></svg>