<svg xmlns="http://www.w3.org/2000/svg" xmlns:xlink="http://www.w3.org/1999/xlink" width="500" zoomAndPan="magnify" viewBox="0 0 375 374.999991" height="500" preserveAspectRatio="xMidYMid meet" version="1.0"><defs><clipPath id="c307814b15"><path d="M 0 2.609375 L 369.75 2.609375 L 369.75 372.359375 L 0 372.359375 Z M 0 2.609375 " clip-rule="nonzero"/></clipPath></defs><g clip-path="url(#c307814b15)"><path fill="#d9d9d9" d="M 184.886719 36.226562 C 101.34375 36.226562 33.617188 103.949219 33.617188 187.496094 C 33.617188 271.039062 101.34375 338.765625 184.886719 338.765625 C 268.433594 338.765625 336.15625 271.039062 336.15625 187.496094 C 336.15625 103.949219 268.433594 36.226562 184.886719 36.226562 Z M 0 187.496094 C 0 85.386719 82.777344 2.609375 184.886719 2.609375 C 286.996094 2.609375 369.773438 85.386719 369.773438 187.496094 C 369.773438 289.605469 286.996094 372.382812 184.886719 372.382812 C 82.777344 372.382812 0 289.605469 0 187.496094 Z M 0 187.496094 " fill-opacity="1" fill-rule="evenodd"/></g><path fill="#d9d9d9" d="M 184.886719 120.265625 C 170.964844 120.265625 159.675781 131.550781 159.675781 145.476562 C 159.675781 155.511719 165.535156 164.210938 174.097656 168.273438 C 181.449219 171.765625 185.246094 180.023438 183.101562 187.878906 L 164.875 254.726562 L 204.902344 254.726562 L 186.671875 187.878906 C 184.527344 180.023438 188.320312 171.765625 195.675781 168.273438 C 204.238281 164.210938 210.097656 155.511719 210.097656 145.476562 C 210.097656 131.550781 198.808594 120.265625 184.886719 120.265625 Z M 126.058594 145.476562 C 126.058594 112.988281 152.398438 86.648438 184.886719 86.648438 C 217.375 86.648438 243.714844 112.988281 243.714844 145.476562 C 243.714844 163.757812 235.371094 180.074219 222.324219 190.851562 L 243.121094 267.113281 C 244.5 272.167969 243.445312 277.574219 240.261719 281.738281 C 237.082031 285.902344 232.144531 288.34375 226.90625 288.34375 L 142.867188 288.34375 C 137.628906 288.34375 132.691406 285.902344 129.511719 281.738281 C 126.328125 277.574219 125.273438 272.167969 126.652344 267.113281 L 147.449219 190.851562 C 134.398438 180.074219 126.058594 163.757812 126.058594 145.476562 Z M 126.058594 145.476562 " fill-opacity="1" fill-rule="evenodd"/></svg>