<svg xmlns="http://www.w3.org/2000/svg" xmlns:xlink="http://www.w3.org/1999/xlink" width="500" zoomAndPan="magnify" viewBox="0 0 375 374.999991" height="500" preserveAspectRatio="xMidYMid meet" version="1.0"><defs><clipPath id="d727af635d"><path d="M 0 0 L 369.75 0 L 369.75 369.75 L 0 369.75 Z M 0 0 " clip-rule="nonzero"/></clipPath></defs><g clip-path="url(#d727af635d)"><path fill="#ffde59" d="M 184.980469 0 C 82.824219 0 0 82.824219 0 184.992188 C 0 287.160156 82.824219 369.988281 184.980469 369.988281 C 287.140625 369.988281 369.976562 287.164062 369.976562 184.992188 C 369.976562 82.820312 287.164062 0 184.980469 0 Z M 306.167969 165.761719 L 256.925781 213.765625 C 256.328125 214.351562 255.808594 214.996094 255.367188 215.703125 C 254.925781 216.414062 254.578125 217.164062 254.320312 217.957031 C 254.0625 218.75 253.902344 219.5625 253.84375 220.394531 C 253.785156 221.230469 253.824219 222.054688 253.964844 222.878906 L 265.59375 290.664062 C 267.035156 299.070312 258.210938 305.484375 250.660156 301.511719 L 189.78125 269.511719 C 189.042969 269.121094 188.269531 268.828125 187.460938 268.628906 C 186.648438 268.425781 185.828125 268.328125 184.992188 268.328125 C 184.160156 268.328125 183.335938 268.425781 182.527344 268.628906 C 181.714844 268.828125 180.941406 269.121094 180.203125 269.511719 L 119.328125 301.511719 C 111.777344 305.484375 102.953125 299.070312 104.394531 290.664062 L 116.019531 222.878906 C 116.160156 222.054688 116.203125 221.230469 116.140625 220.394531 C 116.082031 219.5625 115.921875 218.75 115.664062 217.957031 C 115.40625 217.164062 115.058594 216.414062 114.617188 215.703125 C 114.179688 214.996094 113.660156 214.351562 113.0625 213.765625 L 63.8125 165.761719 C 57.699219 159.808594 61.070312 149.433594 69.515625 148.207031 L 137.570312 138.316406 C 138.394531 138.195312 139.195312 137.980469 139.964844 137.664062 C 140.738281 137.351562 141.464844 136.949219 142.136719 136.457031 C 142.8125 135.96875 143.421875 135.402344 143.957031 134.765625 C 144.496094 134.128906 144.949219 133.433594 145.320312 132.6875 L 175.761719 71.011719 C 179.539062 63.367188 190.445312 63.367188 194.222656 71.011719 L 224.660156 132.6875 C 225.03125 133.433594 225.484375 134.128906 226.019531 134.765625 C 226.558594 135.402344 227.164062 135.96875 227.839844 136.457031 C 228.515625 136.949219 229.238281 137.351562 230.011719 137.664062 C 230.785156 137.980469 231.582031 138.195312 232.410156 138.316406 L 300.460938 148.207031 C 308.914062 149.433594 312.285156 159.808594 306.175781 165.761719 Z M 306.167969 165.761719 " fill-opacity="1" fill-rule="nonzero"/></g><path fill="#ffffff" d="M 194.222656 71.011719 L 224.660156 132.6875 C 225.03125 133.433594 225.484375 134.128906 226.019531 134.765625 C 226.558594 135.402344 227.164062 135.96875 227.839844 136.457031 C 228.515625 136.949219 229.238281 137.351562 230.011719 137.664062 C 230.785156 137.980469 231.582031 138.195312 232.410156 138.316406 L 300.460938 148.207031 C 308.902344 149.4375 312.273438 159.808594 306.167969 165.761719 L 256.925781 213.765625 C 256.328125 214.351562 255.808594 214.996094 255.367188 215.703125 C 254.925781 216.414062 254.578125 217.164062 254.320312 217.957031 C 254.0625 218.75 253.902344 219.5625 253.84375 220.394531 C 253.785156 221.230469 253.824219 222.054688 253.964844 222.878906 L 265.59375 290.664062 C 267.035156 299.070312 258.210938 305.484375 250.660156 301.511719 L 189.78125 269.511719 C 189.042969 269.121094 188.269531 268.828125 187.460938 268.628906 C 186.648438 268.425781 185.828125 268.328125 184.992188 268.328125 C 184.160156 268.328125 183.335938 268.425781 182.527344 268.628906 C 181.714844 268.828125 180.941406 269.121094 180.203125 269.511719 L 119.328125 301.511719 C 111.777344 305.484375 102.953125 299.070312 104.394531 290.664062 L 116.019531 222.878906 C 116.160156 222.054688 116.203125 221.230469 116.140625 220.394531 C 116.082031 219.5625 115.921875 218.75 115.664062 217.957031 C 115.40625 217.164062 115.058594 216.414062 114.617188 215.703125 C 114.179688 214.996094 113.660156 214.351562 113.0625 213.765625 L 63.8125 165.761719 C 57.699219 159.808594 61.070312 149.433594 69.515625 148.207031 L 137.570312 138.316406 C 138.394531 138.195312 139.195312 137.980469 139.964844 137.664062 C 140.738281 137.351562 141.464844 136.949219 142.136719 136.457031 C 142.8125 135.96875 143.421875 135.402344 143.957031 134.765625 C 144.496094 134.128906 144.949219 133.433594 145.320312 132.6875 L 175.761719 71.011719 C 179.539062 63.363281 190.445312 63.363281 194.222656 71.011719 Z M 194.222656 71.011719 " fill-opacity="1" fill-rule="nonzero"/></svg>