<svg xmlns="http://www.w3.org/2000/svg" viewBox="0 0 24 24">
  <!-- Círculo exterior -->
  <circle cx="12" cy="12" r="11" fill="currentColor"/>
  
  <!-- Cámara y elementos -->
  <path fill="white" d="M14.5,6.5h-5C8.1,6.5,7,7.6,7,9v6c0,1.4,1.1,2.5,2.5,2.5h5c1.4,0,2.5-1.1,2.5-2.5V9C17,7.6,15.9,6.5,14.5,6.5z M12,15c-1.7,0-3-1.3-3-3s1.3-3,3-3s3,1.3,3,3S13.7,15,12,15z M15,9c-0.6,0-1-0.4-1-1s0.4-1,1-1s1,0.4,1,1S15.6,9,15,9z"/>
  
  <!-- Círculo interior de la cámara -->
  <circle cx="12" cy="12" r="1.5" fill="white"/>
</svg>